<?xml version="1.0" encoding="UTF-8"?>
<svg xmlns="http://www.w3.org/2000/svg" viewBox="0 0 560 96" width="560" height="96" role="img" aria-label="GitHub">
  <g fill="#ffffff">
    <path d="M48 10C26.46 10 9 27.46 9 49c0 17.23 11.18 31.86 26.68 37.02 1.95.37 2.66-.84 2.66-1.87 0-.92-.03-3.36-.05-6.6-10.85 2.36-13.14-5.23-13.14-5.23-1.78-4.52-4.35-5.72-4.35-5.72-3.56-2.44.27-2.39.27-2.39 3.94.28 6.01 4.05 6.01 4.05 3.5 6 9.18 4.27 11.42 3.27.35-2.54 1.37-4.27 2.49-5.25-8.66-.99-17.77-4.33-17.77-19.25 0-4.25 1.52-7.72 4.02-10.44-.4-.99-1.74-4.98.38-10.38 0 0 3.28-1.05 10.75 4.01A37.49 37.49 0 0 1 48 31.94c3.32.02 6.66.45 9.79 1.31 7.47-5.06 10.74-4.01 10.74-4.01 2.12 5.4.79 9.39.39 10.38 2.5 2.72 4.01 6.19 4.01 10.44 0 14.96-9.12 18.25-17.8 19.22 1.4 1.21 2.65 3.6 2.65 7.26 0 5.25-.05 9.48-.05 10.77 0 1.03.7 2.26 2.68 1.87C76.84 80.83 88 66.22 88 49c0-21.54-17.46-39-39-39z"/>
    <text x="124" y="64" font-family="Inter, Arial, sans-serif" font-size="52" letter-spacing="0.5">GitHub</text>
  </g>
</svg>
